PathFileType	4	(X/Y/Z)	1H_rest_fast_left.trc
DataRate	CameraRate	NumFrames	NumMarkers	Units	OrigDataRate	OrigDataStartFrame	OrigNumFrames
250.00	250.00	14	18	mm	250.00	10356	27614
Frame#	Time	c7	r_should	l_should	clavicle	r_upa	r_elb_l	r_elb_m	r_low	r_wri_l	r_wri_m	r_met	l_upa	l_elb_l	l_elb_m	l_low	l_wri_l	l_wri_m	l_met
	X1	Y1	Z1	X2	Y2	Z2	X3	Y3	Z3	X4	Y4	Z4	X5	Y5	Z5	X6	Y6	Z6	X7	Y7	Z7	X8	Y8	Z8	X9	Y9	Z9	X10	Y10	Z10	X11	Y11	Z11	X12	Y12	Z12	X13	Y13	Z13	X14	Y14	Z14	X15	Y15	Z15	X16	Y16	Z16	X17	Y17	Z17	X18	Y18	Z18
10356	41.42000	615.69977	1419.54382	245.77737	662.07098	1364.56042	406.75601	684.19019	1373.64941	87.90453	748.74512	1283.49866	248.09929	661.20520	1156.56738	478.67288	658.09918	1067.22937	499.64066	614.54010	1030.58313	427.73270	718.16644	893.28406	491.73584	747.82977	829.54596	465.62750	682.15253	805.66193	489.34763	786.77844	755.79407	497.23431	723.44690	1193.06812	13.21028	741.59265	1113.99890	4.17463	680.74060	1059.66309	55.34786	811.53613	1124.09863	104.20808	825.53082	1162.54297	170.68578	834.05719	1097.56433	198.32117	897.22278	1193.34570	211.46922
10357	41.42400	615.67310	1419.53174	245.79559	662.05981	1364.55188	406.75409	684.18250	1373.58838	87.87546	748.72900	1283.50134	248.07138	661.19098	1156.55713	478.66553	658.06598	1067.22571	499.63449	614.49945	1030.56592	427.73560	718.13300	893.28021	491.73938	747.79993	829.54370	465.63678	682.10620	805.62622	489.35132	786.73755	755.78351	497.25232	723.34442	1192.99670	13.13573	741.76501	1113.67688	4.20335	680.55835	1059.54541	55.19541	811.54492	1123.61926	104.17374	825.66675	1161.87683	170.73853	834.12897	1096.82947	198.19891	897.42078	1192.47290	211.51758
10358	41.42800	615.64661	1419.53003	245.80974	662.04596	1364.54102	406.74612	684.17596	1373.52649	87.83759	748.70746	1283.49731	248.03174	661.19147	1156.56580	478.66339	658.06323	1067.23694	499.64078	614.47052	1030.56897	427.75638	718.09137	893.27069	491.73331	747.76831	829.53619	465.64047	682.06122	805.64197	489.39072	786.71320	755.79370	497.27567	723.23663	1192.92236	13.05550	741.20508	1113.77637	3.99762	680.39008	1059.45740	55.07934	811.55035	1123.14270	104.12775	825.81964	1161.20093	170.76880	834.14331	1096.06042	198.05080	897.62299	1191.59888	211.54494
10359	41.43200	615.62207	1419.53735	245.82893	662.03070	1364.52869	406.73862	684.16858	1373.46606	87.80183	748.67810	1283.48035	248.00500	661.20325	1156.57898	478.67917	658.08105	1067.26416	499.66843	614.46307	1030.58679	427.78915	718.04517	893.25391	491.73059	747.72980	829.51831	465.64252	682.02496	805.69647	489.45416	786.69971	755.81274	497.30844	723.12885	1192.83923	12.98195	740.96222	1113.69128	3.88791	680.23853	1059.40723	54.97448	811.55194	1122.66467	104.07381	825.97424	1160.53467	170.79596	834.07043	1095.09302	197.74608	897.82794	1190.72095	211.57019
10360	41.43600	615.60632	1419.54614	245.85144	662.01642	1364.52124	406.74063	684.16919	1373.40540	87.77112	748.64490	1283.45825	248.00104	661.20563	1156.59607	478.70816	658.09198	1067.29651	499.70383	614.46570	1030.61194	427.82684	717.98834	893.22479	491.74228	747.67877	829.49615	465.66272	681.99780	805.75909	489.52704	786.68134	755.83685	497.34808	723.02142	1192.75964	12.91053	740.79694	1113.56042	3.80764	680.09015	1059.37683	54.86182	811.55627	1122.17175	104.02891	826.12073	1159.85754	170.82996	834.08557	1093.97339	197.29079	898.03705	1189.83203	211.61163
10361	41.44000	615.59436	1419.55920	245.88611	662.01459	1364.51453	406.75858	684.17340	1373.34875	87.74723	748.61206	1283.44031	248.00247	661.19446	1156.61365	478.73160	658.08319	1067.32080	499.72821	614.46021	1030.64014	427.85492	717.92169	893.19928	491.76440	747.62286	829.47931	465.70001	681.96558	805.79950	489.57800	786.63635	755.84619	497.38922	722.91302	1192.68457	12.85124	740.65540	1113.42639	3.73934	679.92987	1059.35144	54.70237	811.57013	1121.65930	103.99364	826.28131	1159.17383	170.87625	834.17896	1093.11987	197.09746	898.23792	1188.91699	211.67409
10362	41.44400	615.58594	1419.57092	245.92276	662.00769	1364.51648	406.77960	684.18097	1373.30371	87.73058	748.58081	1283.43970	248.01080	661.17499	1156.62061	478.73795	658.05670	1067.32959	499.73856	614.43591	1030.65698	427.86740	717.85187	893.18268	491.78793	747.56750	829.46881	465.73734	681.92407	805.79675	489.59344	786.57147	755.83240	497.41348	722.80444	1192.61597	12.79161	740.52875	1113.30029	3.67193	679.75037	1059.31250	54.50595	811.59039	1121.16125	103.96870	826.45465	1158.50293	170.93057	834.20435	1092.29065	196.98332	898.43903	1187.97522	211.76291
10363	41.44800	615.57495	1419.58313	245.95630	662.00970	1364.52625	406.79263	684.19232	1373.26099	87.70938	748.56494	1283.44983	248.01314	661.14838	1156.60632	478.72562	658.01593	1067.31555	499.72684	614.39508	1030.64966	427.85953	717.78583	893.16919	491.79782	747.52032	829.46716	465.76349	681.87048	805.74976	489.56873	786.49377	755.79639	497.41342	722.69940	1192.55005	12.73056	740.40125	1113.17224	3.59889	679.54730	1059.23584	54.27869	811.61792	1120.67139	103.94492	826.61975	1157.81628	170.97379	834.26306	1091.53723	196.89017	898.65411	1187.05652	211.83208
10364	41.45200	615.56793	1419.58545	245.99203	662.01147	1364.52991	406.80658	684.19818	1373.20752	87.69505	748.55182	1283.45947	248.00526	661.12292	1156.58093	478.71213	657.97345	1067.27820	499.70868	614.35046	1030.62695	427.85214	717.71960	893.14716	491.79535	747.48022	829.46454	465.77420	681.81250	805.67981	489.53479	786.40637	755.74170	497.40640	722.59497	1192.47595	12.65951	740.27887	1113.03186	3.52501	679.33209	1059.13586	54.03702	811.64136	1120.15625	103.91226	826.79510	1157.10657	171.01622	834.27185	1090.75281	196.78221	898.87482	1186.13513	211.88158
10365	41.45600	615.55463	1419.58008	246.02684	662.01514	1364.51782	406.81903	684.20361	1373.13342	87.67432	748.54242	1283.45410	247.98515	661.10040	1156.55444	478.70880	657.94073	1067.24341	499.70197	614.30731	1030.60413	427.86041	717.64764	893.11218	491.78293	747.43805	829.45306	465.78323	681.75336	805.61841	489.52328	786.33270	755.68683	497.39993	722.49347	1192.39685	12.57712	740.16125	1112.86877	3.44720	679.13373	1059.03027	53.82278	811.67169	1119.63586	103.87173	826.97168	1156.38489	171.08124	834.26660	1089.89050	196.69756	899.10529	1185.19348	211.90776
10366	41.46000	615.53436	1419.57544	246.05380	662.01910	1364.50000	406.82071	684.20831	1373.05310	87.64928	748.53369	1283.44128	247.96101	661.09497	1156.54175	478.71945	657.93762	1067.22876	499.71408	614.28809	1030.58594	427.88284	717.56476	893.06421	491.76132	747.38837	829.42969	465.78201	681.69427	805.60040	489.54080	786.27997	755.65283	497.40067	722.39026	1192.30957	12.49158	740.04700	1112.69312	3.36823	678.98181	1058.94775	53.65367	811.71545	1119.09753	103.83583	827.13544	1155.63879	171.14142	834.27405	1089.00708	196.63033	899.33899	1184.23804	211.93236
10367	41.46400	615.51459	1419.57861	246.07132	662.01880	1364.48315	406.82120	684.21649	1372.97949	87.62050	748.52325	1283.42590	247.94135	661.10889	1156.55225	478.73892	657.95972	1067.24622	499.74609	614.28400	1030.58557	427.91760	717.47369	893.01617	491.73187	747.34436	829.39862	465.77692	681.64008	805.62994	489.59494	786.24469	755.64362	497.40192	722.28223	1192.21899	12.40224	739.84253	1112.72266	3.14654	678.86090	1058.88342	53.52231	811.75940	1118.54785	103.79323	827.29742	1154.87268	171.18550	834.29401	1088.14197	196.53824	899.56769	1183.26526	211.95172
10368	41.46800	615.49988	1419.59045	246.09438	662.01837	1364.47986	406.82617	684.22888	1372.91638	87.58704	748.50128	1283.41418	247.92665	661.13068	1156.57739	478.77197	657.98938	1067.28101	499.79395	614.28534	1030.61279	427.96680	717.36786	892.96875	491.70880	747.29346	829.37799	465.77249	681.58923	805.69043	489.67230	786.21423	755.64990	497.40952	722.17798	1192.13477	12.31251	739.54114	1113.00549	2.76205	678.76166	1058.84033	53.41466	811.79791	1117.99731	103.74232	827.47748	1154.11279	171.22212	834.27594	1087.25952	196.39217	899.79364	1182.26880	211.98395
10369	41.47200	615.49243	1419.60461	246.12276	662.02368	1364.48193	406.83704	684.23962	1372.86267	87.56374	748.47394	1283.40222	247.92094	661.14178	1156.60498	478.81470	657.99939	1067.32043	499.84329	614.27698	1030.65369	428.02570	717.25098	892.91797	491.69046	747.23138	829.36267	465.77975	681.54346	805.74323	489.73697	786.17206	755.65894	497.41959	722.07410	1192.06384	12.22138	739.42224	1112.94226	2.62125	678.64667	1058.80054	53.28006	811.81958	1117.46667	103.69257	827.65448	1153.37451	171.24593	834.29089	1086.43506	196.27155	900.01184	1181.27600	212.01233
